<svg width="201" height="151" viewBox="0 0 201 151" fill="none" xmlns="http://www.w3.org/2000/svg">
<path d="M49.7035 22.2685H92.3645" stroke="#101828" stroke-width="0.520129" stroke-miterlimit="10"/>
<path d="M71.0392 1V43.5474" stroke="#101828" stroke-width="0.520129" stroke-miterlimit="10"/>
<path d="M71.0392 43.5474C71.0392 43.5474 78.1442 34.1478 78.1442 22.2789C78.1442 10.41 71.0392 1.0104 71.0392 1.0104" stroke="#101828" stroke-width="0.520129" stroke-miterlimit="10"/>
<path d="M71.0392 43.537C82.8168 43.537 92.3644 34.0148 92.3644 22.2685C92.3644 10.5222 82.8168 1 71.0392 1C59.2615 1 49.7139 10.5222 49.7139 22.2685C49.7139 34.0148 59.2615 43.537 71.0392 43.537Z" stroke="#101828" stroke-width="0.520129" stroke-miterlimit="10"/>
<path d="M71.0392 43.5474C71.0392 43.5474 85.2595 38.8061 85.2595 22.2789C85.2595 5.75172 71.0392 1.0104 71.0392 1.0104" stroke="#101828" stroke-width="0.520129" stroke-miterlimit="10"/>
<path d="M71.0392 43.5474C71.0392 43.5474 63.9342 34.1478 63.9342 22.2789C63.9342 10.41 71.0392 1.0104 71.0392 1.0104" stroke="#101828" stroke-width="0.520129" stroke-miterlimit="10"/>
<path d="M71.0392 43.5474C71.0392 43.5474 56.8188 38.8061 56.8188 22.2789C56.8188 5.75172 71.0392 1.0104 71.0392 1.0104" stroke="#101828" stroke-width="0.520129" stroke-miterlimit="10"/>
<path d="M51.9608 31.803C54.239 30.8278 60.3349 28.7528 71.0391 28.7528C81.733 28.7528 87.8393 30.8278 90.1175 31.803" stroke="#101828" stroke-width="0.520129" stroke-miterlimit="10"/>
<path d="M56.9957 38.2873C59.2115 37.2498 63.5806 35.8388 71.0288 35.8388C78.425 35.8388 82.7837 37.2187 85.0203 38.2666" stroke="#101828" stroke-width="0.520129" stroke-miterlimit="10"/>
<path d="M51.9608 12.7444C54.239 13.7196 60.3349 15.7946 71.0391 15.7946C81.733 15.7946 87.8393 13.7196 90.1175 12.7444" stroke="#101828" stroke-width="0.520129" stroke-miterlimit="10"/>
<path d="M56.9957 6.26007C59.2115 7.29755 63.5806 8.70854 71.0288 8.70854C78.425 8.70854 82.7837 7.32868 85.0203 6.28082" stroke="#101828" stroke-width="0.520129" stroke-miterlimit="10"/>
<path d="M81.4106 104.614C76.563 104.614 72.0066 101.605 68.9066 96.3451C66.1916 91.749 64.6936 85.7212 64.6936 79.3926C64.6936 73.0535 66.1916 67.0361 68.9066 62.44C72.0066 57.1903 76.5734 54.1712 81.4106 54.1712C86.2582 54.1712 90.8145 57.18 93.9144 62.44C96.6295 67.0361 98.1275 73.0639 98.1275 79.3926C98.1275 85.7212 96.6295 91.749 93.9144 96.3451C90.8145 101.595 86.2582 104.614 81.4106 104.614Z" fill="white" stroke="#101828" stroke-width="0.520129" stroke-miterlimit="10"/>
<path d="M81.4106 100.194C88.2014 100.194 93.7064 90.881 93.7064 79.3926C93.7064 67.9041 88.2014 58.5909 81.4106 58.5909C74.6198 58.5909 69.1147 67.9041 69.1147 79.3926C69.1147 90.881 74.6198 100.194 81.4106 100.194Z" fill="#101828" stroke="#101828" stroke-width="0.520129" stroke-miterlimit="10"/>
<path d="M82.4196 54.2128L154.676 60.3029C154.676 60.3029 161.656 65.1895 161.656 79.3927C161.656 93.5959 154.676 98.4721 154.676 98.4721L82.4196 104.573" stroke="#101828" stroke-width="0.520129" stroke-miterlimit="10"/>
<path d="M156.621 62.2636L188.724 64.9715C188.724 64.9715 193.998 68.6546 193.998 79.3926C193.998 90.1306 188.724 93.8033 188.724 93.8033L156.621 96.5111" stroke="#101828" stroke-width="0.520129" stroke-miterlimit="10"/>
<path d="M192.489 70.5013L196.89 70.8748C196.89 70.8748 200 73.0535 200 79.3926C200 85.7316 196.89 87.9103 196.89 87.9103L192.489 88.2838" stroke="#101828" stroke-width="0.520129" stroke-miterlimit="10"/>
<path d="M44.9911 104.614C40.1435 104.614 35.5872 101.605 32.4872 96.3451C29.7721 91.7491 28.2742 85.7213 28.2742 79.3926C28.2742 73.0535 29.7721 67.0361 32.4872 62.44C35.5872 57.1903 40.1539 54.1712 44.9911 54.1712C49.8387 54.1712 54.395 57.18 57.495 62.44C60.2101 67.0361 61.7081 73.0639 61.7081 79.3926C61.7081 85.7213 60.2101 91.7491 57.495 96.3451C54.3846 101.595 49.8283 104.614 44.9911 104.614Z" fill="white" stroke="#101828" stroke-width="0.520129" stroke-miterlimit="10"/>
<path d="M44.9912 100.194C51.782 100.194 57.287 90.881 57.287 79.3926C57.287 67.9041 51.782 58.5909 44.9912 58.5909C38.2004 58.5909 32.6953 67.9041 32.6953 79.3926C32.6953 90.881 38.2004 100.194 44.9912 100.194Z" fill="#101828" stroke="#101828" stroke-width="0.520129" stroke-miterlimit="10"/>
<path d="M74.1287 102.197L45.9897 104.572" stroke="#101828" stroke-width="0.520129" stroke-miterlimit="10"/>
<path d="M45.9897 54.2128L73.9727 56.5679" stroke="#101828" stroke-width="0.520129" stroke-miterlimit="10"/>
<path d="M95.8285 111.492L97.2225 115.103L100.853 116.493L97.2225 117.883L95.8285 121.504L94.4346 117.894L90.8145 116.493L94.4346 115.103L95.8285 111.492Z" fill="#101828"/>
<path d="M27.6709 45.1036L29.0648 48.7244L32.6953 50.1147L29.0648 51.5049L27.6709 55.1257L26.277 51.5049L22.6569 50.1147L26.277 48.7244L27.6709 45.1036Z" fill="#101828"/>
<path d="M114.137 41.7837L115.531 45.3941L119.151 46.7947L115.531 48.185L114.137 51.7954L112.733 48.185L109.113 46.7947L112.743 45.3941L114.137 41.7837Z" fill="#101828"/>
<path d="M193.998 95.1832L195.392 98.804L199.012 100.194L195.392 101.584L193.998 105.205L192.604 101.584L188.973 100.194L192.604 98.804L193.998 95.1832Z" fill="#101828"/>
<path d="M158.504 113.111H157.651V151H158.504V113.111Z" fill="#101828"/>
<path d="M177.078 132.48V131.629H139.088V132.48H177.078Z" fill="#101828"/>
<path d="M144.944 118.362L144.341 118.964L171.204 145.755L171.807 145.154L144.944 118.362Z" fill="#101828"/>
<path d="M171.813 118.956L171.21 118.355L144.347 145.146L144.95 145.748L171.813 118.956Z" fill="#101828"/>
<path d="M158.078 135.438C159.95 135.438 161.469 133.923 161.469 132.055C161.469 130.188 159.95 128.673 158.078 128.673C156.205 128.673 154.686 130.188 154.686 132.055C154.686 133.923 156.205 135.438 158.078 135.438Z" fill="#101828"/>
<path d="M119.172 7.47394V24.6547C119.172 26.3043 120.514 27.6531 122.178 27.6531H156.569C158.223 27.6531 159.576 28.9914 159.576 30.6514V50.0109C159.576 51.6605 160.918 53.0093 162.582 53.0093H196.265" stroke="#101828" stroke-width="0.520129" stroke-miterlimit="10"/>
<path d="M119.172 8.89528C119.959 8.89528 120.597 8.25892 120.597 7.47392C120.597 6.68893 119.959 6.05256 119.172 6.05256C118.385 6.05256 117.747 6.68893 117.747 7.47392C117.747 8.25892 118.385 8.89528 119.172 8.89528Z" fill="#101828"/>
<path d="M196.245 54.4306C197.032 54.4306 197.67 53.7943 197.67 53.0093C197.67 52.2243 197.032 51.5879 196.245 51.5879C195.458 51.5879 194.82 52.2243 194.82 53.0093C194.82 53.7943 195.458 54.4306 196.245 54.4306Z" fill="#101828"/>
<path d="M1.42517 97.9325H14.8757C16.6754 97.9325 18.1317 99.385 18.1317 101.18V112.291C18.1317 114.086 19.5881 115.539 21.3877 115.539H55.2689C57.0686 115.539 58.5249 116.991 58.5249 118.786V137.648C58.5249 139.442 59.9813 140.895 61.7809 140.895H118.548" stroke="#101828" stroke-width="0.520129" stroke-miterlimit="10"/>
<path d="M1.42515 99.3539C2.21225 99.3539 2.8503 98.7175 2.8503 97.9325C2.8503 97.1475 2.21225 96.5111 1.42515 96.5111C0.638064 96.5111 0 97.1475 0 97.9325C0 98.7175 0.638064 99.3539 1.42515 99.3539Z" fill="#101828"/>
<path d="M118.537 142.306C119.325 142.306 119.963 141.67 119.963 140.885C119.963 140.1 119.325 139.463 118.537 139.463C117.75 139.463 117.112 140.1 117.112 140.885C117.112 141.67 117.75 142.306 118.537 142.306Z" fill="#101828"/>
</svg>
