<svg width="16" height="16" viewBox="0 0 16 16" fill="none" xmlns="http://www.w3.org/2000/svg">
<path fill-rule="evenodd" clip-rule="evenodd" d="M2.66699 8.00016C2.66699 7.63197 2.96547 7.3335 3.33366 7.3335H12.667C13.0352 7.3335 13.3337 7.63197 13.3337 8.00016C13.3337 8.36835 13.0352 8.66683 12.667 8.66683H3.33366C2.96547 8.66683 2.66699 8.36835 2.66699 8.00016Z" fill="currentColor"/>
<path fill-rule="evenodd" clip-rule="evenodd" d="M7.52827 2.86177C7.78862 2.60142 8.21073 2.60142 8.47108 2.86177L13.1377 7.52843C13.3981 7.78878 13.3981 8.21089 13.1377 8.47124L8.47108 13.1379C8.21073 13.3983 7.78862 13.3983 7.52827 13.1379C7.26792 12.8776 7.26792 12.4554 7.52827 12.1951L11.7235 7.99984L7.52827 3.80458C7.26792 3.54423 7.26792 3.12212 7.52827 2.86177Z" fill="currentColor"/>
</svg>
