<svg width="24" height="24" viewBox="0 0 24 24" fill="none" xmlns="http://www.w3.org/2000/svg">
<path fill-rule="evenodd" clip-rule="evenodd" d="M0 7.99992C0 7.63173 0.373096 7.33325 0.833333 7.33325H12.5C12.9602 7.33325 13.3333 7.63173 13.3333 7.99992C13.3333 8.36811 12.9602 8.66659 12.5 8.66659H0.833333C0.373096 8.66659 0 8.36811 0 7.99992Z" fill="currentColor"/>
<path fill-rule="evenodd" clip-rule="evenodd" d="M5.80474 2.86189C6.06509 3.12224 6.06509 3.54435 5.80474 3.8047L1.60948 7.99996L5.80474 12.1952C6.06509 12.4556 6.06509 12.8777 5.80474 13.138C5.54439 13.3984 5.12228 13.3984 4.86193 13.138L0.195262 8.47136C-0.0650874 8.21102 -0.0650874 7.7889 0.195262 7.52856L4.86193 2.86189C5.12228 2.60154 5.54439 2.60154 5.80474 2.86189Z" fill="currentColor"/>
<path fill-rule="evenodd" clip-rule="evenodd" d="M10.6665 15.9999C10.6665 15.6317 11.0396 15.3333 11.4998 15.3333H23.1665C23.6267 15.3333 23.9998 15.6317 23.9998 15.9999C23.9998 16.3681 23.6267 16.6666 23.1665 16.6666H11.4998C11.0396 16.6666 10.6665 16.3681 10.6665 15.9999Z" fill="currentColor"/>
<path fill-rule="evenodd" clip-rule="evenodd" d="M18.1953 10.8619C18.4556 10.6015 18.8777 10.6015 19.1381 10.8619L23.8047 15.5286C24.0651 15.7889 24.0651 16.211 23.8047 16.4714L19.1381 21.138C18.8777 21.3984 18.4556 21.3984 18.1953 21.138C17.9349 20.8777 17.9349 20.4556 18.1953 20.1952L22.3905 16L18.1953 11.8047C17.9349 11.5443 17.9349 11.1222 18.1953 10.8619Z" fill="currentColor"/>
</svg>
