<svg width="24" height="24" viewBox="0 0 24 24" fill="none" xmlns="http://www.w3.org/2000/svg">
<path fill-rule="evenodd" clip-rule="evenodd" d="M6.24791 8.99792C6.24791 7.47914 7.47913 6.24792 8.99791 6.24792H19.0037C20.5225 6.24792 21.7537 7.47913 21.7537 8.99792V19.0037C21.7537 20.5225 20.5225 21.7538 19.0037 21.7538H8.99791C7.47913 21.7538 6.24791 20.5225 6.24791 19.0038V8.99792ZM8.99791 7.74792C8.30755 7.74792 7.74791 8.30756 7.74791 8.99792V19.0038C7.74791 19.6941 8.30755 20.2538 8.99791 20.2538H19.0037C19.6941 20.2538 20.2537 19.6941 20.2537 19.0037V8.99792C20.2537 8.30756 19.6941 7.74792 19.0037 7.74792H8.99791Z" fill="currentColor"/>
<path fill-rule="evenodd" clip-rule="evenodd" d="M4.99708 3.74625C4.30626 3.74625 3.74625 4.30627 3.74625 4.99708V15.0013C3.74625 15.6921 4.30626 16.2521 4.99708 16.2521H6.99791C7.41213 16.2521 7.74791 16.5879 7.74791 17.0021C7.74791 17.4163 7.41213 17.7521 6.99791 17.7521H4.99708C3.47784 17.7521 2.24625 16.5205 2.24625 15.0013V4.99708C2.24625 3.47784 3.47784 2.24625 4.99708 2.24625H15.0012C16.5205 2.24625 17.7521 3.47784 17.7521 4.99708V6.99792C17.7521 7.41213 17.4163 7.74792 17.0021 7.74792C16.5879 7.74792 16.2521 7.41213 16.2521 6.99792V4.99708C16.2521 4.30627 15.6921 3.74625 15.0012 3.74625H4.99708Z" fill="currentColor"/>
</svg>
