<svg width="24" height="24" viewBox="0 0 24 24" fill="none" xmlns="http://www.w3.org/2000/svg">
<path d="M14.5 4V9C14.5002 9.57633 14.3012 10.135 13.9367 10.5815C13.5722 11.0279 13.0647 11.3347 12.5 11.45V7C12.499 6.07207 12.1299 5.18244 11.4738 4.5263C10.8176 3.87015 9.92798 3.50106 9.00005 3.5H4.55005C4.66531 2.93532 4.97214 2.4278 5.4186 2.06335C5.86505 1.69889 6.42372 1.49988 7.00005 1.5H12C12.6631 1.5 13.299 1.76339 13.7678 2.23223C14.2367 2.70107 14.5 3.33696 14.5 4Z" fill="currentColor"/>
<path d="M9 4.5H4C2.61929 4.5 1.5 5.61929 1.5 7V12C1.5 13.3807 2.61929 14.5 4 14.5H9C10.3807 14.5 11.5 13.3807 11.5 12V7C11.5 5.61929 10.3807 4.5 9 4.5Z" fill="currentColor"/>
</svg>
