<svg width="24" height="24" viewBox="0 0 24 24" fill="none" xmlns="http://www.w3.org/2000/svg">
<path fill-rule="evenodd" clip-rule="evenodd" d="M12 4C7.55228 4 4 7.55228 4 12C4 16.4477 7.55228 20 12 20C16.4477 20 20 16.4477 20 12C20 7.55228 16.4477 4 12 4ZM2 12C2 6.44772 6.44772 2 12 2C17.5523 2 22 6.44772 22 12C22 17.5523 17.5523 22 12 22C6.44772 22 2 17.5523 2 12Z" fill="currentColor"/>
<path fill-rule="evenodd" clip-rule="evenodd" d="M12 6C12.3081 6 12.599 6.14203 12.7885 6.38497L16.6885 11.385C17.0282 11.8204 16.9505 12.4488 16.515 12.7885C16.0796 13.1282 15.4512 13.0505 15.1115 12.615L12 8.62593L8.88851 12.615C8.54883 13.0505 7.92045 13.1282 7.48497 12.7885C7.0495 12.4488 6.97183 11.8204 7.3115 11.385L11.2115 6.38497C11.401 6.14203 11.6919 6 12 6Z" fill="currentColor"/>
<path fill-rule="evenodd" clip-rule="evenodd" d="M7.48497 11.2115C7.92045 10.8718 8.54883 10.9495 8.88851 11.385L12 15.3741L15.1115 11.385C15.4512 10.9495 16.0796 10.8718 16.515 11.2115C16.9505 11.5512 17.0282 12.1796 16.6885 12.615L12.7885 17.615C12.599 17.858 12.3081 18 12 18C11.6919 18 11.401 17.858 11.2115 17.615L7.3115 12.615C6.97183 12.1796 7.0495 11.5512 7.48497 11.2115Z" fill="currentColor"/>
</svg>
