<svg width="24" height="24" viewBox="0 0 24 24" fill="none" xmlns="http://www.w3.org/2000/svg">
<circle cx="12" cy="12" r="10" fill="currentColor" fill-opacity="0.12"/>
<path fill-rule="evenodd" clip-rule="evenodd" d="M11.9999 6C12.308 6 12.5989 6.14203 12.7884 6.38497L16.6884 11.385C17.0281 11.8204 16.9504 12.4488 16.5149 12.7885C16.0795 13.1282 15.4511 13.0505 15.1114 12.615L11.9999 8.62593L8.8884 12.615C8.54873 13.0505 7.92034 13.1282 7.48487 12.7885C7.04939 12.4488 6.97172 11.8204 7.3114 11.385L11.2114 6.38497C11.4009 6.14203 11.6918 6 11.9999 6Z" fill="currentColor"/>
<path fill-rule="evenodd" clip-rule="evenodd" d="M7.48487 11.2115C7.92034 10.8718 8.54873 10.9495 8.8884 11.385L11.9999 15.3741L15.1114 11.385C15.4511 10.9495 16.0795 10.8718 16.5149 11.2115C16.9504 11.5512 17.0281 12.1796 16.6884 12.615L12.7884 17.615C12.5989 17.858 12.308 18 11.9999 18C11.6918 18 11.4009 17.858 11.2114 17.615L7.3114 12.615C6.97172 12.1796 7.04939 11.5512 7.48487 11.2115Z" fill="currentColor"/>
</svg>
