<svg width="24" height="24" viewBox="0 0 24 24" fill="none" xmlns="http://www.w3.org/2000/svg">
<path fill-rule="evenodd" clip-rule="evenodd" d="M15.7929 2.79289C16.3782 2.20753 17.1722 1.87868 18 1.87868C18.4099 1.87868 18.8158 1.95942 19.1945 2.11628C19.5732 2.27314 19.9173 2.50305 20.2071 2.79289C20.4969 3.08274 20.7269 3.42683 20.8837 3.80552C21.0406 4.18422 21.1213 4.5901 21.1213 5C21.1213 5.4099 21.0406 5.81578 20.8837 6.19448C20.7269 6.57318 20.4969 6.91727 20.2071 7.20711L7.7071 19.7071C7.57894 19.8353 7.41836 19.9262 7.24253 19.9701L3.24253 20.9701C2.90175 21.0553 2.54126 20.9555 2.29288 20.7071C2.0445 20.4587 1.94465 20.0982 2.02985 19.7575L3.02985 15.7575C3.07381 15.5816 3.16473 15.4211 3.29288 15.2929L15.7929 2.79289ZM11 20C11 19.4477 11.4477 19 12 19H21C21.5523 19 22 19.4477 22 20C22 20.5523 21.5523 21 21 21H12C11.4477 21 11 20.5523 11 20Z" fill="currentColor"/>
</svg>
