<svg width="24" height="24" viewBox="0 0 24 24" fill="none" xmlns="http://www.w3.org/2000/svg">
<path fill-rule="evenodd" clip-rule="evenodd" d="M2.25 12C2.25 8.27179 5.27179 5.25 9 5.25H15C15.4142 5.25 15.75 5.58579 15.75 6C15.75 6.41421 15.4142 6.75 15 6.75H9C6.10021 6.75 3.75 9.10021 3.75 12C3.75 13.6713 4.53296 15.1574 5.75454 16.1212C6.07973 16.3777 6.13537 16.8493 5.87881 17.1745C5.62225 17.4997 5.15065 17.5554 4.82546 17.2988C3.26104 16.0646 2.25 14.1527 2.25 12Z" fill="currentColor"/>
<path fill-rule="evenodd" clip-rule="evenodd" d="M18.1212 6.82546C18.3777 6.50027 18.8493 6.44463 19.1745 6.70119C20.739 7.93543 21.75 9.84733 21.75 12C21.75 15.7282 18.7282 18.75 15 18.75H9C8.58579 18.75 8.25 18.4142 8.25 18C8.25 17.5858 8.58579 17.25 9 17.25H15C17.8998 17.25 20.25 14.8998 20.25 12C20.25 10.3287 19.467 8.84258 18.2455 7.87881C17.9203 7.62226 17.8646 7.15065 18.1212 6.82546Z" fill="currentColor"/>
<path fill-rule="evenodd" clip-rule="evenodd" d="M12.0303 14.9697C12.3232 15.2626 12.3232 15.7374 12.0303 16.0303L10.0607 18L12.0303 19.9697C12.3232 20.2626 12.3232 20.7374 12.0303 21.0303C11.7374 21.3232 11.2626 21.3232 10.9697 21.0303L8.46967 18.5303C8.17678 18.2374 8.17678 17.7626 8.46967 17.4697L10.9697 14.9697C11.2626 14.6768 11.7374 14.6768 12.0303 14.9697Z" fill="currentColor"/>
<path fill-rule="evenodd" clip-rule="evenodd" d="M11.9697 2.96967C12.2626 2.67678 12.7374 2.67678 13.0303 2.96967L15.5303 5.46967C15.8232 5.76256 15.8232 6.23744 15.5303 6.53033L13.0303 9.03033C12.7374 9.32322 12.2626 9.32322 11.9697 9.03033C11.6768 8.73744 11.6768 8.26256 11.9697 7.96967L13.9393 6L11.9697 4.03033C11.6768 3.73744 11.6768 3.26256 11.9697 2.96967Z" fill="currentColor"/>
</svg>
