<svg width="32" height="32" viewBox="0 0 32 32" fill="none" xmlns="http://www.w3.org/2000/svg">
<rect width="32" height="32" rx="8" fill="#1570EF"/>
<rect x="0.5" y="0.5" width="31" height="31" rx="7.5" stroke="white" stroke-opacity="0.24"/>
<path fill-rule="evenodd" clip-rule="evenodd" d="M16.0002 22.6668C19.6821 22.6668 22.6668 19.6821 22.6668 16.0002C22.6668 12.3183 19.6821 9.3335 16.0002 9.3335C12.3183 9.3335 9.3335 12.3183 9.3335 16.0002C9.3335 19.6821 12.3183 22.6668 16.0002 22.6668ZM15.9934 14.0403C15.6801 14.0403 15.4201 13.7796 15.4201 13.4603C15.4201 13.1336 15.6801 12.8736 16.0068 12.8736C16.3268 12.8736 16.5868 13.1336 16.5868 13.4603C16.5868 13.7796 16.3268 14.0403 15.9934 14.0403ZM16.5801 18.5203C16.5801 18.8403 16.3201 19.1003 15.9934 19.1003C15.6734 19.1003 15.4134 18.8403 15.4134 18.5203V15.5736C15.4134 15.253 15.6734 14.987 15.9934 14.987C16.3201 14.987 16.5801 15.253 16.5801 15.5736V18.5203Z" fill="white"/>
</svg>
