<svg width="24" height="24" viewBox="0 0 24 24" fill="none" xmlns="http://www.w3.org/2000/svg">
<path fill-rule="evenodd" clip-rule="evenodd" d="M17.0107 14.6012C17.4247 14.6012 17.7607 14.2652 17.7607 13.8512V11.9992C17.7607 11.5852 17.4247 11.2492 17.0107 11.2492H11.3187C10.9947 10.1822 10.0127 9.3982 8.8407 9.3982C7.4067 9.3982 6.2397 10.5652 6.2397 11.9992C6.2397 13.4342 7.4067 14.6012 8.8407 14.6012C10.0127 14.6012 10.9947 13.8172 11.3187 12.7492H13.4307V13.8512C13.4307 14.2652 13.7667 14.6012 14.1807 14.6012C14.5947 14.6012 14.9307 14.2652 14.9307 13.8512V12.7492H16.2607V13.8512C16.2607 14.2652 16.5967 14.6012 17.0107 14.6012ZM7.6657 1.9992H16.3347C19.7227 1.9992 21.9997 4.3772 21.9997 7.9162V16.0832C21.9997 19.6222 19.7227 21.9992 16.3337 21.9992H7.6657C4.2767 21.9992 1.9997 19.6222 1.9997 16.0832V7.9162C1.9997 4.3772 4.2767 1.9992 7.6657 1.9992ZM7.7388 12.0001C7.7388 11.3921 8.2338 10.8981 8.8408 10.8981C9.4478 10.8981 9.9428 11.3921 9.9428 12.0001C9.9428 12.6071 9.4478 13.1011 8.8408 13.1011C8.2338 13.1011 7.7388 12.6071 7.7388 12.0001Z" fill="currentColor"/>
</svg>
