<svg width="16" height="16" viewBox="0 0 16 16" fill="none" xmlns="http://www.w3.org/2000/svg">
<path fill-rule="evenodd" clip-rule="evenodd" d="M13.3299 7.521C13.6061 7.52208 13.829 7.74682 13.828 8.02296C13.8221 9.5062 13.2588 10.9906 12.1249 12.1245C9.84692 14.4025 6.15301 14.4025 3.87508 12.1245C3.46875 11.7182 3.13926 11.2666 2.87907 10.7898C2.74679 10.5475 2.83605 10.2437 3.07845 10.1114C3.32084 9.97915 3.62458 10.0684 3.75686 10.3108C3.97401 10.7087 4.24718 11.0824 4.58219 11.4174C6.46959 13.3048 9.53034 13.3048 11.4177 11.4174C12.3558 10.4794 12.8231 9.25179 12.828 8.01903C12.8291 7.74289 13.0538 7.51992 13.3299 7.521Z" fill="currentColor"/>
<path fill-rule="evenodd" clip-rule="evenodd" d="M11.4179 4.58206C9.53048 2.69465 6.46973 2.69465 4.58232 4.58206C3.65873 5.50565 3.18872 6.70932 3.16937 7.92115C3.16496 8.19726 2.93756 8.41752 2.66145 8.41311C2.38534 8.4087 2.16509 8.18129 2.1695 7.90519C2.19281 6.44502 2.76014 4.99002 3.87521 3.87495C6.15314 1.59702 9.84706 1.59702 12.125 3.87495C12.5313 4.28128 12.8608 4.73288 13.121 5.20965C13.2533 5.45205 13.164 5.75578 12.9216 5.88807C12.6792 6.02035 12.3755 5.93109 12.2432 5.68869C12.0261 5.29079 11.7529 4.91706 11.4179 4.58206Z" fill="currentColor"/>
<path fill-rule="evenodd" clip-rule="evenodd" d="M12.9919 2.59229C13.2681 2.59229 13.4919 2.81614 13.4919 3.09229V5.44962C13.4919 5.72576 13.2681 5.94962 12.9919 5.94962H10.6353C10.3591 5.94962 10.1353 5.72576 10.1353 5.44962C10.1353 5.17348 10.3591 4.94962 10.6353 4.94962H12.4919V3.09229C12.4919 2.81614 12.7158 2.59229 12.9919 2.59229Z" fill="currentColor"/>
<path fill-rule="evenodd" clip-rule="evenodd" d="M2.5083 10.5498C2.5083 10.2737 2.73216 10.0498 3.0083 10.0498H5.36497C5.64111 10.0498 5.86497 10.2737 5.86497 10.5498C5.86497 10.8259 5.64111 11.0498 5.36497 11.0498H3.5083V12.9071C3.5083 13.1833 3.28444 13.4071 3.0083 13.4071C2.73216 13.4071 2.5083 13.1833 2.5083 12.9071V10.5498Z" fill="currentColor"/>
</svg>
