<svg width="24" height="24" viewBox="0 0 24 24" fill="none" xmlns="http://www.w3.org/2000/svg">
<path d="M20.4779 6.80973C20.7524 6.53528 20.7524 6.0903 20.4779 5.81586L18.369 3.70708C17.9785 3.31657 17.3454 3.31657 16.9548 3.70709L14.8461 5.81587C14.5716 6.09031 14.5716 6.53527 14.8461 6.80972C15.1205 7.08416 15.5655 7.08416 15.8399 6.80972L16.9592 5.69041V8.52544C16.9592 9.55032 16.5151 10.5232 15.7407 11.1944L12.9881 13.5807C12.5871 13.9282 12.2493 14.3313 11.9816 14.7723C11.7194 14.3294 11.3876 13.9281 10.9937 13.5867L8.23416 11.1944C7.45976 10.5232 7.0155 9.55032 7.0155 8.52544V5.69041L8.13494 6.80975C8.40939 7.08418 8.85434 7.08417 9.12878 6.80973C9.40323 6.53528 9.40322 6.0903 9.12877 5.81586L7.0199 3.70708C6.62937 3.31657 5.99622 3.31657 5.6057 3.70709L3.49692 5.81587C3.22248 6.09031 3.22248 6.53527 3.49693 6.80972C3.77137 7.08416 4.21633 7.08416 4.49078 6.80972L5.61008 5.69041V8.52544C5.61008 9.95819 6.23094 11.318 7.31351 12.2565L10.073 14.6487C10.8282 15.3033 11.2634 16.2715 11.2671 17.3026V20.2973C11.2671 20.6854 11.5817 21 11.9698 21C12.3579 21 12.6725 20.6854 12.6725 20.2973V17.3116C12.6725 16.2965 13.1231 15.3236 13.9087 14.6426L16.6614 12.2565C17.7439 11.318 18.3647 9.95819 18.3647 8.52544V5.69041L19.4841 6.80975C19.7585 7.08418 20.2035 7.08417 20.4779 6.80973Z" fill="currentColor"/>
</svg>
