<svg width="52" height="52" viewBox="0 0 52 52" fill="none" xmlns="http://www.w3.org/2000/svg">
<rect width="52" height="52" rx="26" fill="currentColor" fill-opacity="0.24"/>
<path d="M25.2301 21.2905V17.2815C25.2301 16.8552 25.5701 16.5 26.0001 16.5C26.3851 16.5 26.7113 16.7985 26.763 17.1766L26.7701 17.2815V21.2905L31.55 21.2908C33.93 21.2908 35.8853 23.2398 35.9951 25.6704L36 25.8861V30.9254C36 33.373 34.1127 35.3822 31.768 35.495L31.56 35.5H20.44C18.06 35.5 16.1141 33.5608 16.0048 31.1213L16 30.9047L16 25.8758C16 23.4281 17.8779 21.4092 20.222 21.2958L20.43 21.2908H25.23V27.6932L23.63 26.041C23.33 25.7312 22.84 25.7312 22.54 26.041C22.39 26.1959 22.32 26.4024 22.32 26.6089C22.32 26.7659 22.3648 26.9295 22.4595 27.0679L22.54 27.1666L25.45 30.1819C25.59 30.3368 25.79 30.4194 26 30.4194C26.1667 30.4194 26.3333 30.362 26.4653 30.2533L26.54 30.1819L29.45 27.1666C29.75 26.8568 29.75 26.3508 29.45 26.041C29.1773 25.7594 28.7475 25.7338 28.4462 25.9642L28.36 26.041L26.77 27.6932V21.2908L25.2301 21.2905Z" fill="currentColor"/>
</svg>
