<svg width="24" height="24" viewBox="0 0 24 24" fill="none" xmlns="http://www.w3.org/2000/svg">
<path fill-rule="evenodd" clip-rule="evenodd" d="M9.56066 8.68934C8.97487 8.10355 8.02513 8.10355 7.43934 8.68934C6.85355 9.27513 6.85355 10.2249 7.43934 10.8107C8.02513 11.3964 8.97487 11.3964 9.56066 10.8107C10.1464 10.2249 10.1464 9.27513 9.56066 8.68934ZM10.6213 7.62868C9.44975 6.45711 7.55025 6.45711 6.37868 7.62868C5.20711 8.80025 5.20711 10.6997 6.37868 11.8713C7.55025 13.0429 9.44975 13.0429 10.6213 11.8713C11.7929 10.6997 11.7929 8.80025 10.6213 7.62868Z" fill="currentColor"/>
<path fill-rule="evenodd" clip-rule="evenodd" d="M2.65746 8.30045L2.66188 16.0119C2.67734 18.3467 4.26851 19.7427 6.91933 19.7427H17.0807C19.7492 19.7427 21.3425 18.3336 21.3425 15.9758L21.3392 8.26435C21.3238 5.92955 19.7304 4.53349 17.0807 4.53349H6.91933C4.25083 4.53349 2.65746 5.94159 2.65746 8.30045ZM23 15.9748C23 19.128 20.621 21.2471 17.0807 21.2471H6.91934C3.34696 21.2471 1.02541 19.1941 1.00442 16.0169L1 8.30146V8.30045C1 5.14728 3.37901 3.02912 6.91934 3.02912H17.0807C20.6519 3.02912 22.9746 5.08209 22.9967 8.25933L23 15.9748Z" fill="currentColor"/>
<path fill-rule="evenodd" clip-rule="evenodd" d="M14.25 9.5C14.25 9.08579 14.5858 8.75 15 8.75H19C19.4142 8.75 19.75 9.08579 19.75 9.5C19.75 9.91421 19.4142 10.25 19 10.25H15C14.5858 10.25 14.25 9.91421 14.25 9.5Z" fill="currentColor"/>
<path fill-rule="evenodd" clip-rule="evenodd" d="M14.25 13.5C14.25 13.0858 14.5858 12.75 15 12.75H17.4C17.8142 12.75 18.15 13.0858 18.15 13.5C18.15 13.9142 17.8142 14.25 17.4 14.25H15C14.5858 14.25 14.25 13.9142 14.25 13.5Z" fill="currentColor"/>
<path fill-rule="evenodd" clip-rule="evenodd" d="M5.18744 14.7957C5.91301 14.1234 6.86497 13.75 7.85399 13.75H9.14599C10.1349 13.75 11.0867 14.1233 11.8123 14.7954M5.18744 14.7957C4.75817 15.1928 4.42443 15.6801 4.2083 16.2223C4.05492 16.607 4.24249 17.0433 4.62726 17.1967C5.01203 17.3501 5.44829 17.1625 5.60167 16.7777C5.7355 16.442 5.94167 16.1413 6.20629 15.8966C6.20645 15.8964 6.20662 15.8962 6.20678 15.8961C6.65518 15.4805 7.24312 15.25 7.85399 15.25H9.14599C9.75685 15.25 10.3448 15.4805 10.7932 15.8961C10.7933 15.8962 10.7934 15.8963 10.7935 15.8964C10.7936 15.8964 10.7936 15.8965 10.7937 15.8966C11.0583 16.1413 11.2645 16.442 11.3983 16.7777C11.5517 17.1625 11.9879 17.3501 12.3727 17.1967C12.7575 17.0433 12.9451 16.607 12.7917 16.2223C12.5755 15.6801 12.2417 15.1928 11.8124 14.7956" fill="currentColor"/>
</svg>
