<svg width="24" height="24" viewBox="0 0 24 24" fill="none" xmlns="http://www.w3.org/2000/svg">
<path d="M9.56066 8.68934C8.97487 8.10355 8.02513 8.10355 7.43934 8.68934C6.85355 9.27513 6.85355 10.2249 7.43934 10.8107C8.02513 11.3964 8.97487 11.3964 9.56066 10.8107C10.1464 10.2249 10.1464 9.27513 9.56066 8.68934Z" fill="currentColor"/>
<path fill-rule="evenodd" clip-rule="evenodd" d="M1 8C1 5.23858 3.23858 3 6 3H18C20.7614 3 23 5.23858 23 8V16C23 18.7614 20.7614 21 18 21H6C3.23858 21 1 18.7614 1 16V8ZM10.6213 7.62868C9.44975 6.45711 7.55025 6.45711 6.37868 7.62868C5.20711 8.80025 5.20711 10.6997 6.37868 11.8713C7.55025 13.0429 9.44975 13.0429 10.6213 11.8713C11.7929 10.6997 11.7929 8.80025 10.6213 7.62868ZM15 8.75C14.5858 8.75 14.25 9.08579 14.25 9.5C14.25 9.91421 14.5858 10.25 15 10.25H19C19.4142 10.25 19.75 9.91421 19.75 9.5C19.75 9.08579 19.4142 8.75 19 8.75H15ZM14.25 13.5C14.25 13.0858 14.5858 12.75 15 12.75H17.4C17.8142 12.75 18.15 13.0858 18.15 13.5C18.15 13.9142 17.8142 14.25 17.4 14.25H15C14.5858 14.25 14.25 13.9142 14.25 13.5ZM7.85398 13.75C6.86497 13.75 5.91301 14.1234 5.18744 14.7957C4.75817 15.1928 4.42443 15.6801 4.2083 16.2223C4.05492 16.607 4.24249 17.0433 4.62726 17.1967C5.01203 17.3501 5.44829 17.1625 5.60167 16.7777C5.7355 16.442 5.94167 16.1413 6.20629 15.8966C6.65468 15.481 7.24312 15.25 7.85398 15.25H9.14598C9.75685 15.25 10.3448 15.4805 10.7932 15.8961C11.0578 16.1409 11.2645 16.442 11.3983 16.7777C11.5517 17.1625 11.9879 17.3501 12.3727 17.1967C12.7575 17.0433 12.9451 16.607 12.7917 16.2223C12.5755 15.6801 12.2417 15.1928 11.8124 14.7956C11.0869 14.1234 10.1349 13.75 9.14598 13.75H7.85398Z" fill="currentColor"/>
</svg>
