<svg width="24" height="24" viewBox="0 0 24 24" fill="none" xmlns="http://www.w3.org/2000/svg">
<path fill-rule="evenodd" clip-rule="evenodd" d="M8.03788 7.30969C8.03788 5.16869 9.77988 3.42769 11.9209 3.42769C14.0609 3.42769 15.8019 5.16869 15.8019 7.30969C15.8019 9.44969 14.0609 11.1917 11.9209 11.1917V11.9057L11.8919 11.1917C9.75988 11.1837 8.03088 9.44369 8.03788 7.30969ZM11.8889 12.6187H11.9209C14.8489 12.6187 17.2299 10.2377 17.2299 7.30969C17.2299 4.38169 14.8489 1.99969 11.9209 1.99969C8.99188 1.99969 6.60988 4.3817 6.60988 7.30669C6.59988 10.2267 8.96688 12.6097 11.8889 12.6187ZM5.49988 18.1731C5.49988 16.7281 7.65988 15.9961 11.9209 15.9961C16.1809 15.9961 18.3399 16.7351 18.3399 18.1931C18.3399 19.6381 16.1809 20.3701 11.9209 20.3701C7.65988 20.3701 5.49988 19.6311 5.49988 18.1731ZM3.99988 18.1731C3.99988 21.8701 9.96188 21.8701 11.9209 21.8701C15.3199 21.8701 19.8399 21.4891 19.8399 18.1931C19.8399 14.4961 13.8799 14.4961 11.9209 14.4961C8.52088 14.4961 3.99988 14.8771 3.99988 18.1731Z" fill="currentColor"/>
</svg>
