<svg width="24" height="24" viewBox="0 0 24 24" fill="none" xmlns="http://www.w3.org/2000/svg">
<path fill-rule="evenodd" clip-rule="evenodd" d="M8.81872 8.569C8.81872 6.877 10.1947 5.5 11.8867 5.5C13.5787 5.5 14.9557 6.877 14.9557 8.569C14.9557 10.262 13.5787 11.638 11.8867 11.638V12.388L11.8617 11.638C11.0457 11.635 10.2797 11.314 9.70472 10.735C9.12972 10.156 8.81572 9.389 8.81872 8.569ZM11.8597 13.138H11.8867C14.4067 13.138 16.4557 11.088 16.4557 8.569C16.4557 6.05 14.4067 4 11.8867 4C9.36772 4 7.31872 6.05 7.31872 8.566C7.31372 9.783 7.78272 10.929 8.64072 11.792C9.49672 12.656 10.6397 13.134 11.8597 13.138ZM17.1447 11.5005C17.1977 11.8755 17.5187 12.1465 17.8867 12.1465C17.9207 12.1465 17.9557 12.1445 17.9907 12.1395C19.7657 11.8905 21.1067 10.3505 21.1107 8.5555C21.1107 6.7725 19.8337 5.2685 18.0757 4.9795C17.6647 4.9145 17.2817 5.1885 17.2137 5.5975C17.1467 6.0065 17.4237 6.3925 17.8317 6.4595C18.8627 6.6285 19.6107 7.5105 19.6107 8.5535C19.6087 9.6055 18.8237 10.5075 17.7837 10.6535C17.3727 10.7105 17.0877 11.0895 17.1447 11.5005ZM20.1603 18.0482C20.2743 18.3472 20.5593 18.5312 20.8613 18.5312C20.9503 18.5312 21.0403 18.5152 21.1283 18.4822C22.5583 17.9372 22.7723 16.9442 22.7723 16.4002C22.7723 15.5092 22.2633 14.3712 19.8403 14.0082C19.4273 13.9552 19.0473 14.2282 18.9863 14.6382C18.9253 15.0492 19.2083 15.4302 19.6173 15.4922C20.7153 15.6562 21.2723 15.9622 21.2723 16.4002C21.2723 16.5372 21.2723 16.8222 20.5943 17.0802C20.2073 17.2272 20.0123 17.6612 20.1603 18.0482ZM11.8867 15.914C9.51072 15.914 6.67772 16.206 6.67772 17.596C6.67772 18.997 9.51072 19.291 11.8867 19.291C14.2627 19.291 17.0947 19 17.0947 17.613C17.0947 16.209 14.2627 15.914 11.8867 15.914ZM11.8867 20.791C10.2277 20.791 5.17772 20.791 5.17772 17.596C5.17772 14.414 10.2277 14.414 11.8867 14.414C13.5457 14.414 18.5947 14.414 18.5947 17.613C18.5947 20.791 13.7217 20.791 11.8867 20.791ZM5.88572 12.1465C5.85172 12.1465 5.81672 12.1445 5.78172 12.1395C4.00672 11.8905 2.66672 10.3505 2.66272 8.5575C2.66272 6.7725 3.93972 5.2685 5.69772 4.9795C6.11872 4.9135 6.49172 5.1905 6.55972 5.5975C6.62672 6.0065 6.34972 6.3925 5.94172 6.4595C4.91072 6.6285 4.16272 7.5105 4.16272 8.5555C4.16472 9.6055 4.94972 10.5085 5.98872 10.6535C6.39972 10.7105 6.68472 11.0895 6.62772 11.5005C6.57472 11.8755 6.25372 12.1465 5.88572 12.1465ZM2.64512 18.4822C2.73312 18.5152 2.82312 18.5312 2.91212 18.5312C3.21412 18.5312 3.49912 18.3472 3.61312 18.0482C3.76112 17.6612 3.56612 17.2272 3.17912 17.0802C2.50012 16.8212 2.50012 16.5372 2.50012 16.4002C2.50012 15.9622 3.05712 15.6562 4.15512 15.4922C4.56412 15.4302 4.84712 15.0492 4.78612 14.6382C4.72412 14.2282 4.34612 13.9562 3.93312 14.0082C1.50912 14.3712 1.00012 15.5102 1.00012 16.4002C1.00012 16.9432 1.21412 17.9362 2.64512 18.4822Z" fill="currentColor"/>
</svg>
