<svg width="24" height="24" viewBox="0 0 24 24" fill="none" xmlns="http://www.w3.org/2000/svg">
<path fill-rule="evenodd" clip-rule="evenodd" d="M12.7894 3.01491C12.3891 2.50016 11.6111 2.50016 11.2107 3.01491L10.4719 3.96482C10.197 4.31826 9.72068 4.4459 9.3059 4.27725L8.19112 3.82401C7.58702 3.57839 6.91325 3.96739 6.82391 4.61337L6.65905 5.80541C6.5977 6.24895 6.24901 6.59764 5.80548 6.65899L4.61343 6.82385C3.96745 6.91319 3.57845 7.58696 3.82407 8.19106L4.27731 9.30584C4.44596 9.72062 4.31832 10.1969 3.96489 10.4718L3.01498 11.2106C2.50022 11.611 2.50022 12.389 3.01498 12.7894L3.96489 13.5282C4.31832 13.803 4.44596 14.2794 4.27731 14.6942L3.82407 15.8089C3.57845 16.413 3.96745 17.0868 4.61343 17.1761L5.80548 17.341C6.24901 17.4024 6.5977 17.7511 6.65905 18.1946L6.82391 19.3866C6.91325 20.0326 7.58702 20.4216 8.19112 20.176L9.3059 19.7227C9.72068 19.5541 10.197 19.6817 10.4719 20.0352L11.2107 20.9851C11.6111 21.4998 12.3891 21.4998 12.7894 20.9851L13.5282 20.0352C13.8031 19.6817 14.2794 19.5541 14.6942 19.7227L15.809 20.176C16.4131 20.4216 17.0869 20.0326 17.1762 19.3866L17.3411 18.1946C17.4024 17.751 17.7511 17.4024 18.1946 17.341L19.3867 17.1761C20.0327 17.0868 20.4217 16.413 20.1761 15.8089L19.7228 14.6942C19.5542 14.2794 19.6818 13.8031 20.0352 13.5282L20.9851 12.7894C21.4999 12.389 21.4999 11.611 20.9851 11.2106L20.0352 10.4718C19.6818 10.1969 19.5542 9.72062 19.7228 9.30584L20.1761 8.19106C20.4217 7.58696 20.0327 6.91319 19.3867 6.82385L18.1946 6.65899C17.7511 6.59764 17.4024 6.24895 17.3411 5.80541L17.1762 4.61337C17.0869 3.96739 16.4131 3.57839 15.809 3.82401L14.6942 4.27725C14.2794 4.4459 13.8031 4.31826 13.5282 3.96482L12.7894 3.01491ZM16.8536 9.7879C17.0489 9.60765 17.0489 9.31542 16.8536 9.13518C16.6584 8.95494 16.3418 8.95494 16.1465 9.13518L11.0001 13.8857L8.85361 11.9044C8.65835 11.7242 8.34177 11.7242 8.14651 11.9044C7.95125 12.0847 7.95125 12.3769 8.14651 12.5571L10.6465 14.8648C10.8418 15.0451 11.1584 15.0451 11.3536 14.8648L16.8536 9.7879Z" fill="currentColor"/>
</svg>
