<svg width="24" height="24" viewBox="0 0 24 24" fill="none" xmlns="http://www.w3.org/2000/svg">
<path id="Combined Shape" fill-rule="evenodd" clip-rule="evenodd" d="M7.9976 4.5C5.5176 4.5 3.4996 6.518 3.4996 8.998V16.175C3.4996 18.655 5.5176 20.673 7.9976 20.673H16.6416C19.1216 20.673 21.1386 18.655 21.1386 16.175V15.8956H17.8407C15.9437 15.8956 14.3997 14.3526 14.3987 12.4566C14.3987 10.5586 15.9427 9.0146 17.8407 9.0136H21.1386V8.998C21.1386 6.518 19.1216 4.5 16.6416 4.5H7.9976ZM22.6387 15.1456L22.6386 15.1579V16.175C22.6386 19.482 19.9486 22.173 16.6416 22.173H7.9976C4.6906 22.173 1.9996 19.482 1.9996 16.175V8.998C1.9996 5.69 4.6906 3 7.9976 3H16.6416C19.9486 3 22.6386 5.69 22.6386 8.998V9.75129L22.6387 9.7636L22.6386 9.77591V15.1333L22.6387 15.1456ZM21.1386 14.3956V10.5136H17.8407C16.7697 10.5146 15.8987 11.3856 15.8987 12.4556C15.8987 13.5246 16.7707 14.3956 17.8407 14.3956H21.1386ZM17.9863 13.1436H18.2983C18.7123 13.1436 19.0483 12.8076 19.0483 12.3936C19.0483 11.9796 18.7123 11.6436 18.2983 11.6436H17.9863C17.5723 11.6436 17.2363 11.9796 17.2363 12.3936C17.2363 12.8076 17.5723 13.1436 17.9863 13.1436ZM7.2856 9.0381H12.6846C13.0986 9.0381 13.4346 8.7021 13.4346 8.2881C13.4346 7.8741 13.0986 7.5381 12.6846 7.5381H7.2856C6.8716 7.5381 6.5356 7.8741 6.5356 8.2881C6.5356 8.7021 6.8716 9.0381 7.2856 9.0381Z" fill="currentColor"/>
</svg>
