<svg width="52" height="52" viewBox="0 0 52 52" fill="none" xmlns="http://www.w3.org/2000/svg">
<rect width="52" height="52" rx="26" fill="currentColor" fill-opacity="0.24"/>
<path fill-rule="evenodd" clip-rule="evenodd" d="M31.7689 22.3818H36C36 18.9846 33.9644 17 30.5156 17H21.4844C18.0356 17 16 18.9846 16 22.3385V29.6615C16 33.0154 18.0356 35 21.4844 35H30.5156C33.9644 35 36 33.0154 36 29.6615V29.3495H31.7689C29.8052 29.3495 28.2133 27.7975 28.2133 25.883C28.2133 23.9685 29.8052 22.4165 31.7689 22.4165V22.3818ZM31.7689 23.8724H35.2533C35.6657 23.8724 36 24.1983 36 24.6004V27.131C35.9952 27.5311 35.6637 27.8543 35.2533 27.8589H31.8489C30.8548 27.872 29.9855 27.2084 29.76 26.2643C29.6471 25.6783 29.8056 25.0736 30.1931 24.6122C30.5805 24.1509 31.1573 23.8801 31.7689 23.8724ZM31.92 26.533H32.2489C32.6711 26.533 33.0133 26.1993 33.0133 25.7877C33.0133 25.3761 32.6711 25.0424 32.2489 25.0424H31.92C31.7181 25.0401 31.5236 25.1166 31.38 25.255C31.2364 25.3934 31.1555 25.5821 31.1556 25.779C31.1555 26.1921 31.4964 26.5282 31.92 26.533ZM20.7378 22.3818H26.3822C26.8044 22.3818 27.1467 22.0481 27.1467 21.6365C27.1467 21.2249 26.8044 20.8912 26.3822 20.8912H20.7378C20.319 20.8912 19.9782 21.2196 19.9733 21.6278C19.9733 22.0409 20.3142 22.3771 20.7378 22.3818Z" fill="currentColor"/>
</svg>
