<svg width="32" height="33" viewBox="0 0 32 33" fill="none" xmlns="http://www.w3.org/2000/svg">
<rect y="0.5" width="32" height="32" rx="8" fill="currentColor"/>
<rect x="0.5" y="1" width="31" height="31" rx="7.5" stroke="white" stroke-opacity="0.24"/>
<path fill-rule="evenodd" clip-rule="evenodd" d="M17.6517 11.4614L22.4975 19.8715C22.6042 20.1225 22.6508 20.3266 22.6642 20.5387C22.6908 21.0341 22.5175 21.5157 22.1776 21.8863C21.8376 22.2556 21.3777 22.4736 20.8778 22.5H11.1194C10.9128 22.4874 10.7062 22.4405 10.5129 22.3679C9.54636 21.9781 9.07978 20.8815 9.47304 19.9309L14.3522 11.4554C14.5189 11.1575 14.7721 10.9005 15.0854 10.7354C15.9919 10.2327 17.1451 10.563 17.6517 11.4614ZM16.5785 17.0038C16.5785 17.3209 16.3186 17.5858 15.9986 17.5858C15.6787 17.5858 15.412 17.3209 15.412 17.0038V15.135C15.412 14.8172 15.6787 14.5603 15.9986 14.5603C16.3186 14.5603 16.5785 14.8172 16.5785 15.135V17.0038ZM15.9986 19.8451C15.6787 19.8451 15.412 19.5802 15.412 19.2637C15.412 18.946 15.6787 18.6817 15.9986 18.6817C16.3186 18.6817 16.5785 18.94 16.5785 19.2565C16.5785 19.5802 16.3186 19.8451 15.9986 19.8451Z" fill="white"/>
</svg>
