<svg width="96" height="25" viewBox="0 0 96 25" fill="none" xmlns="http://www.w3.org/2000/svg">
<path d="M0 0V24.053H25.9753V0H0ZM20.1038 7.36364C20.1038 7.54488 20.0357 7.72217 19.9081 7.86007L13.6025 14.6918L10.1646 14.6997L20.0782 4.1881L20.1038 7.36364ZM6.30131 4.49935L15.7809 4.47177L13.5174 6.86722C13.4834 6.90268 13.4366 6.92238 13.3897 6.92238L6.30131 6.94208V4.49935ZM20.108 19.8649H5.87158V17.4222H20.108V19.8649Z" fill="currentColor"/>
<path d="M55.0055 5.13757C52.1718 5.13757 49.9083 5.83493 48.4063 7.07993C47.8489 3.36462 44.5685 1.05979 39.5947 1.05979H30.4214V22.6188H35.2931V15.4837H39.4968C43.7814 15.4837 46.8193 13.7974 47.9766 10.9725H50.8698C51.0358 9.24293 52.5037 8.19098 54.8055 8.19098C57.1073 8.19098 58.5412 9.33354 58.5412 11.2483V12.3594H54.9374C49.8997 12.3594 46.9001 14.3687 46.9001 17.887C46.9001 20.9129 49.27 22.9852 52.8398 22.9852C55.3076 22.9852 57.3115 22.2445 58.6092 20.6371L58.7114 22.6149H63.1491V11.4965C63.1491 7.45028 59.9793 5.13363 55.0097 5.13363L55.0055 5.13757ZM39.4968 11.7802H35.2931V4.76722H39.5947C41.9986 4.76722 43.4963 6.09496 43.4963 8.22644C43.4963 10.3579 41.9604 11.7802 39.4926 11.7802H39.4968ZM58.5412 17.0321C57.4392 18.6395 55.9373 19.5969 53.9375 19.5969C52.2696 19.5969 51.4357 18.7932 51.4357 17.6506C51.4357 16.1062 52.7036 15.3655 54.8395 15.3655H58.5412V17.0321Z" fill="currentColor"/>
<path d="M69.0802 10.0822C69.0802 8.93968 70.1141 8.25808 71.782 8.25808C73.7519 8.25808 75.0156 9.21547 75.1177 10.882H79.3895C79.0874 7.26916 76.4537 5.13769 71.9522 5.13769C67.4506 5.13769 64.5148 7.08399 64.5148 10.358C64.5148 16.9692 75.122 14.5895 75.122 17.9896C75.122 19.1637 74.02 19.8729 72.2202 19.8729C69.7865 19.8729 68.3186 18.6082 68.3824 16.5043H64.1447C64.2127 20.519 67.2464 22.9893 72.216 22.9893C76.8537 22.9893 79.6873 20.9209 79.6873 17.5523C79.6873 10.5708 69.0802 13.4114 69.0802 10.0783V10.0822Z" fill="currentColor"/>
<path d="M85.3929 10.0822C85.3929 8.93968 86.4268 8.25808 88.0946 8.25808C90.0646 8.25808 91.3283 9.21547 91.4304 10.882H95.7022C95.4001 7.26916 92.7664 5.13769 88.2648 5.13769C83.7633 5.13769 80.8275 7.08399 80.8275 10.358C80.8275 16.9692 91.4346 14.5895 91.4346 17.9896C91.4346 19.1637 90.3326 19.8729 88.5329 19.8729C86.0992 19.8729 84.6313 18.6082 84.6951 16.5043H80.4573C80.5254 20.519 83.5591 22.9893 88.5286 22.9893C93.1663 22.9893 96 20.9209 96 17.5523C96 10.5708 85.3929 13.4114 85.3929 10.0783V10.0822Z" fill="currentColor"/>
</svg>
