<svg width="24" height="24" viewBox="0 0 24 24" fill="none" xmlns="http://www.w3.org/2000/svg">
<path d="M4.08789 4.61542V19.3846H20.0375V4.61542H4.08789ZM16.4322 9.13689C16.4322 9.24819 16.3904 9.35705 16.312 9.44173L12.4402 13.6366L10.3293 13.6415L16.4165 7.18702L16.4322 9.13689ZM7.95708 7.37816L13.7779 7.36119L12.388 8.83209C12.367 8.85386 12.3383 8.86595 12.3096 8.86595L7.95708 8.87803V7.37816ZM16.4348 16.813H7.69321V15.3131H16.4348V16.813Z" fill="currentColor"/>
<path d="M4.08789 4.61542V19.3846H20.0375V4.61542H4.08789ZM16.4322 9.13689C16.4322 9.24819 16.3904 9.35705 16.312 9.44173L12.4402 13.6366L10.3293 13.6415L16.4165 7.18702L16.4322 9.13689ZM7.95708 7.37816L13.7779 7.36119L12.388 8.83209C12.367 8.85386 12.3383 8.86595 12.3096 8.86595L7.95708 8.87803V7.37816ZM16.4348 16.813H7.69321V15.3131H16.4348V16.813Z" fill="currentColor"/>
</svg>
